<svg width="555" height="555" viewBox="0 0 555 555" fill="none" xmlns="http://www.w3.org/2000/svg">
<path d="M492.587 288.293C492.587 357.32 460.102 418.759 409.587 458.158H145C94.4845 418.759 62 357.32 62 288.293C62 169.39 158.39 73 277.293 73C396.197 73 492.587 169.39 492.587 288.293Z" fill="#E2F1FF"/>
<mask id="mask0_2352_3470" style="mask-type:alpha" maskUnits="userSpaceOnUse" x="18" y="73" width="475" height="432">
<path d="M492.583 288.293C492.583 407.197 396.193 503.587 277.29 503.587C158.387 503.587 -2.50666 535 20.9966 288.293C20.9966 169.39 158.387 73 277.29 73C396.193 73 492.583 169.39 492.583 288.293Z" fill="#E2F1FF"/>
</mask>
<g mask="url(#mask0_2352_3470)">
<path d="M36 409.845C36 375.137 64.1367 347 98.8452 347H482.155C516.863 347 545 375.137 545 409.845C545 444.554 516.863 472.69 482.155 472.69H98.8451C64.1367 472.69 36 444.554 36 409.845Z" fill="#F8F8F8"/>
<path d="M36 409.845C36 375.137 64.1368 347 98.8452 347H159.895V472.69H98.8452C64.1368 472.69 36 444.554 36 409.845Z" fill="#3E5FFF"/>
<path d="M102.427 386.862C89.7323 386.862 79.4436 397.15 79.4436 409.845C79.4436 422.54 89.7323 432.828 102.427 432.828C115.122 432.828 125.41 422.54 125.41 409.845C125.41 397.15 115.122 386.862 102.427 386.862ZM102.427 429.955C100.928 429.955 98.8 428.663 96.8697 424.811C95.9809 423.033 95.2357 420.807 94.7868 418.464H110.148C109.618 420.807 108.873 423.033 107.984 424.811C106.054 428.663 103.926 429.955 102.427 429.955ZM110.66 415.591H94.1943C93.9429 413.777 93.8083 411.847 93.8083 409.845C93.8083 407.843 93.9429 405.913 94.1943 404.099H110.66C110.911 405.913 111.046 407.843 111.046 409.845C111.046 411.847 110.911 413.777 110.66 415.591ZM94.7868 401.226C95.2357 398.802 95.9809 396.656 96.8697 394.878C98.8 391.025 100.928 389.734 102.427 389.734C103.926 389.734 106.054 391.025 107.984 394.878C108.873 396.656 109.618 398.802 110.148 401.226H94.7868ZM91.3753 404.099C91.061 405.94 90.9353 407.861 90.9353 409.845C90.9353 411.829 91.061 413.75 91.3753 415.591H83.1515C82.6039 413.768 82.3166 411.838 82.3166 409.845C82.3166 407.852 82.6039 405.922 83.1515 404.099H91.3753ZM96.0078 390.781C94.1225 393.325 92.6322 396.953 91.7703 401.226H84.2558C86.5721 396.333 90.8186 392.528 96.0078 390.781ZM108.846 390.781C114.035 392.528 118.278 396.333 120.602 401.226H113.084C112.222 396.953 110.732 393.325 108.846 390.781ZM122.537 409.845C122.537 411.838 122.247 413.768 121.704 415.591H113.56C113.793 413.75 113.919 411.829 113.919 409.845C113.919 407.861 113.793 405.94 113.56 404.099H121.704C122.247 405.922 122.537 407.852 122.537 409.845ZM84.2558 418.464H91.7703C92.6322 422.737 94.1225 426.364 96.0078 428.905C90.8186 427.163 86.5721 423.357 84.2558 418.464ZM113.084 418.464H120.602C118.278 423.357 114.035 427.163 108.846 428.905C110.732 426.364 112.222 422.737 113.084 418.464Z" fill="white"/>
</g>
<path fill-rule="evenodd" clip-rule="evenodd" d="M352.232 87.6113C352.232 92.0402 349.617 95.8582 345.847 97.6056C349.617 99.3529 352.232 103.171 352.232 107.6C352.232 113.68 347.303 118.609 341.223 118.609C340.67 118.609 340.127 118.569 339.597 118.49C339.57 118.545 339.542 118.6 339.515 118.655C341.556 120.653 342.823 123.44 342.823 126.522C342.823 132.603 337.894 137.532 331.813 137.532C329.91 137.532 328.119 137.049 326.557 136.198C326.909 137.276 327.099 138.426 327.099 139.621C327.099 145.701 322.17 150.63 316.09 150.63C311.82 150.63 308.118 148.2 306.292 144.647C302.81 145.428 299.19 145.84 295.473 145.84C289.448 145.84 283.676 144.758 278.341 142.778C276.343 144.813 273.561 146.076 270.484 146.076C264.403 146.076 259.474 141.147 259.474 135.066C259.474 134.59 259.504 134.121 259.563 133.661C259.533 133.661 259.504 133.661 259.474 133.661C253.394 133.661 248.465 128.732 248.465 122.652C248.465 121.032 248.815 119.493 249.443 118.108C244.973 116.707 241.729 112.532 241.729 107.6C241.729 104.052 243.408 100.896 246.014 98.8825C243.408 96.869 241.729 93.713 241.729 90.165C241.729 86.1858 243.841 82.6996 247.004 80.7654C245.561 78.9034 244.703 76.5662 244.703 74.0285C244.703 67.9724 249.593 63.0584 255.639 63.0192C255.49 62.2969 255.412 61.5486 255.412 60.782C255.412 54.7017 260.341 49.7725 266.422 49.7725C269.041 49.7725 271.447 50.6876 273.338 52.2155C273.891 46.6527 278.584 42.3083 284.293 42.3083C287.867 42.3083 291.044 44.0118 293.055 46.6513C294.937 43.2799 298.54 41 302.675 41C308.103 41 312.613 44.9277 313.519 50.096C315.46 48.3816 318.01 47.3413 320.804 47.3413C326.884 47.3413 331.813 52.2704 331.813 58.3508C331.813 58.951 331.765 59.54 331.673 60.1141C332.493 59.9191 333.349 59.8159 334.229 59.8159C340.309 59.8159 345.238 64.745 345.238 70.8254C345.238 73.0402 344.584 75.1023 343.459 76.829C348.467 77.8622 352.232 82.297 352.232 87.6113Z" fill="black"/>
<path d="M194.314 263.121H314.144V319.134C314.144 334.765 301.451 347.458 285.82 347.458H194.314V263.115V263.121Z" fill="#3D3D3D"/>
<path d="M334.002 292.666L235.296 277.193L218.476 299.463C215.379 300.628 212.154 300.932 209.088 300.451C203.223 299.53 197.95 295.787 195.286 290.063L185.989 270.225C178.838 254.899 179.642 237.037 188.171 222.424L218.751 170.038C224.505 160.186 233.357 152.492 243.91 148.17L266.564 138.879C269.228 137.776 294.284 126.912 297.15 127.363C299.997 127.808 321.663 145.994 323.864 147.865L342.586 163.643C351.316 170.989 357.381 181.023 359.832 192.161L372.927 251.394C372.952 251.546 372.988 251.711 373.031 251.881C377.969 275.328 357.662 296.385 334.002 292.678V292.666Z" fill="#95D1F9"/>
<path d="M323.56 290.861C315.275 289.562 302.863 277.546 296.333 270.639C294.529 268.737 291.322 269.743 290.92 272.334L288.865 285.423L323.56 290.861Z" fill="#E59A48"/>
<path d="M312.876 153.035L301.434 168.934C295.709 176.871 283.401 174.933 280.389 165.636L274.372 147.005C273.622 144.719 273.604 142.269 274.28 139.952L287.186 96.2411L316.205 100.789L315.114 146.353C315.071 148.755 314.272 151.084 312.87 153.035H312.876Z" fill="#F4C9B8"/>
<path d="M280.458 94.47C280.208 91.2999 277.453 88.9406 274.289 89.1845C271.125 89.4344 268.753 92.1961 269.003 95.3662C269.253 98.5302 272.228 103.505 275.392 103.255C278.556 103.005 280.708 97.634 280.458 94.4639V94.47Z" fill="#F4C9B8"/>
<path d="M330.367 90.5556C330.117 87.3855 327.349 85.0262 324.185 85.2761C321.021 85.5261 318.65 88.2877 318.9 91.4578C319.15 94.6218 322.125 99.5965 325.289 99.3465C328.453 99.0966 330.617 93.7196 330.367 90.5556Z" fill="#F4C9B8"/>
<path d="M302.68 131.203C289.377 132.245 277.624 122.601 276.039 109.341L273.533 88.3269C271.826 73.8176 282.501 60.7958 297.065 59.6497C311.629 58.5096 324.218 69.7025 324.779 84.3033L325.584 105.452C326.102 118.79 315.994 130.154 302.68 131.196V131.203Z" fill="#F4C9B8"/>
<path d="M315.406 134.891C314.492 135.299 313.571 135.64 312.62 135.933C309.139 137 305.371 137.299 301.543 136.701C297.227 136.024 293.343 134.287 290.124 131.775C289.094 130.977 290.045 129.337 291.252 129.818C292.935 130.477 294.691 130.964 296.55 131.251C303.567 132.354 310.389 130.398 315.607 126.356L315.406 134.884V134.891Z" fill="#CEA193"/>
<path d="M324.565 81.2346L325.297 90.5742C325.37 91.5008 324.675 92.3055 323.754 92.3787C323.297 92.4153 322.858 92.2629 322.511 91.9702L307.934 79.1435C302.441 74.3152 294.053 74.9736 289.395 80.6005L276.971 95.5427C276.684 95.8841 276.258 96.1036 275.819 96.1401C274.88 96.2133 274.087 95.5244 274.014 94.5978L273.319 85.7763C272.222 71.7547 282.323 59.0682 296.321 57.6539C303.618 56.9101 310.476 59.2938 315.622 63.6893C320.627 67.9628 323.998 74.1506 324.553 81.2346H324.565Z" fill="black"/>
<path d="M179.368 314.239C177.024 314.239 175.093 312.397 174.982 310.055L171.071 227.128C167.547 208.711 181.666 191.635 200.418 191.635C209.508 191.635 218.098 195.768 223.768 202.87L267.844 284.121L260.778 300.552L222.841 314.239" fill="#3D3D3D"/>
<path d="M357.533 468.415C353.985 476.188 388.527 496.543 384.704 504.932L309.414 470.597C313.499 461.648 323.216 452.765 323.216 452.765L357.533 468.415Z" fill="black"/>
<path d="M222.902 321.59V256.335C222.902 255.548 223.543 254.908 224.329 254.908C225.042 254.908 225.646 255.439 225.737 256.146L237.96 347.463L222.494 347.311L222.909 321.59H222.902Z" fill="black"/>
<path d="M185.116 314.237H222.834C222.834 325.216 225.114 325.217 225.114 336.19H170.003C170.003 327.539 185.122 322.412 185.122 314.237H185.116Z" fill="black"/>
<path d="M269.393 347.439L326.473 347.5L316.309 448.312C316.12 450.181 317.142 451.962 318.849 452.744L359.04 471.144C361.732 472.376 364.847 470.646 365.223 467.709L383.559 324.432C383.559 311.831 376.268 300.369 364.856 295.029C361.978 293.682 358.912 292.767 355.766 292.31L264.394 281.751L269.393 347.439Z" fill="#3D3D3D"/>
<path d="M336.76 296.7C356.585 296.7 372.655 280.629 372.655 260.805C372.655 240.981 356.585 224.91 336.76 224.91C316.936 224.91 300.865 240.981 300.865 260.805C300.865 280.629 316.936 296.7 336.76 296.7Z" fill="#95D1F9"/>
<path d="M384.799 504.686L309.48 470.386L306.834 476.083C305.822 478.261 306.774 480.847 308.958 481.849L376.306 512.761C378.479 513.758 381.049 512.808 382.051 510.638L384.799 504.686Z" fill="#E3E3E3"/>
<path d="M225.115 336.19H170.004V343.127C170.004 345.522 171.945 347.463 174.34 347.463H220.779C223.174 347.463 225.115 345.522 225.115 343.127V336.19Z" fill="#E3E3E3"/>
<path d="M254.936 235.06C252.694 235.723 251.412 238.091 252.081 240.332L255.929 253.293C256.592 255.535 258.96 256.817 261.202 256.148C261.769 255.979 262.305 255.704 262.739 255.32L277.674 242.572C279.315 241.183 280.389 239.243 280.715 237.127L281.718 230.62C281.974 228.906 280.371 227.498 278.702 227.992L254.929 235.055" fill="#F4C9B8"/>
<path d="M309.458 99.2526C309.865 101.452 310.472 103.181 311.316 103.025C312.16 102.869 312.11 101.037 311.703 98.8376C311.297 96.6387 310.689 94.9094 309.845 95.0654C309.001 95.2214 309.052 97.0537 309.458 99.2526Z" fill="black"/>
<path d="M306.358 90.8644C305.93 90.6434 305.609 90.2387 305.522 89.7363C305.378 88.9005 305.932 88.0886 306.778 87.9378C306.942 87.9085 310.512 87.2965 314.291 89.4308C315.046 89.8534 315.307 90.7931 314.886 91.5585C314.462 92.3082 313.512 92.5711 312.757 92.1485C309.995 90.5796 307.361 91.0235 307.327 91.0291C306.988 91.0863 306.651 91.0013 306.358 90.8644Z" fill="black"/>
<path d="M292.49 96.3278C292.811 95.9683 292.966 95.4758 292.868 94.9754C292.703 94.1435 291.896 93.5832 291.052 93.7446C290.888 93.776 287.335 94.4808 284.569 97.8248C284.015 98.4893 284.107 99.4602 284.774 100.025C285.437 100.573 286.419 100.479 286.973 99.8147C288.992 97.362 291.611 96.8348 291.644 96.8281C291.981 96.7604 292.266 96.5603 292.49 96.3278Z" fill="black"/>
<path d="M287.533 104.108C287.75 105.28 289.188 103.976 291.191 103.606C293.194 103.235 295.004 103.939 294.787 102.768C294.571 101.596 292.771 100.947 290.768 101.317C288.765 101.687 287.317 102.937 287.533 104.108Z" fill="black"/>
<path d="M303.399 117.121C303.898 116.884 304.435 117.05 304.679 117.475C304.937 117.917 304.779 118.497 304.335 118.75C304.129 118.866 303.916 118.98 303.702 119.081C299.598 121.036 294.124 119.953 291.223 116.62C291.061 116.43 290.981 116.189 290.998 115.937C291.015 115.685 291.127 115.459 291.32 115.29C291.381 115.231 291.452 115.192 291.534 115.152C291.917 114.97 292.373 115.068 292.651 115.387C295.021 118.116 299.517 118.994 302.904 117.381C303.074 117.3 303.248 117.217 303.406 117.112L303.411 117.122L303.399 117.121Z" fill="black"/>
<path d="M243.435 226.577H327.786C332.421 226.577 336.178 230.334 336.178 234.969V282.471C336.178 287.105 332.421 290.862 327.786 290.862H243.435C238.801 290.862 235.044 287.105 235.044 282.471V234.969C235.044 230.334 238.801 226.577 243.435 226.577Z" fill="#F8F8F8"/>
<path d="M285.62 263.832C282.798 263.832 280.511 261.545 280.511 258.723C280.511 255.901 282.798 253.613 285.62 253.613C288.442 253.613 290.73 255.901 290.73 258.723C290.73 261.545 288.442 263.832 285.62 263.832Z" fill="#3D3D3D"/>
<path d="M339.279 252.406L317.177 263.655C315.622 264.449 315.429 266.575 316.8 267.638L322.008 271.665C323.702 272.976 325.817 273.643 327.963 273.52L347.571 272.479C348.147 272.454 348.729 272.281 349.256 272.021C351.338 270.958 352.168 268.401 351.113 266.32L344.978 254.272C343.916 252.189 341.359 251.36 339.278 252.414" fill="#F4C9B8"/>
<path d="M241.192 417.476C239.213 416.304 236.659 416.958 235.487 418.936L232.637 423.744C231.465 425.723 232.119 428.277 234.097 429.45L278.697 455.877C280.676 457.05 283.23 456.396 284.403 454.418L287.252 449.609C288.424 447.631 287.771 445.076 285.792 443.904L241.192 417.476Z" fill="#2A2B32"/>
<path d="M304.843 420.433C303.798 420.433 302.901 420.068 302.153 419.338C301.414 418.599 301.049 417.702 301.058 416.648C301.049 415.62 301.414 414.741 302.153 414.011C302.901 413.281 303.798 412.916 304.843 412.916C305.835 412.916 306.709 413.281 307.466 414.011C308.232 414.741 308.62 415.62 308.629 416.648C308.62 417.351 308.435 417.99 308.074 418.567C307.723 419.135 307.263 419.59 306.696 419.933C306.128 420.266 305.51 420.433 304.843 420.433Z" fill="#E3E3E3"/>
<path d="M292.947 420.433C291.901 420.433 291.005 420.068 290.257 419.338C289.518 418.599 289.153 417.702 289.162 416.648C289.153 415.62 289.518 414.741 290.257 414.011C291.005 413.281 291.901 412.916 292.947 412.916C293.938 412.916 294.813 413.281 295.57 414.011C296.336 414.741 296.723 415.62 296.732 416.648C296.723 417.351 296.538 417.99 296.178 418.567C295.826 419.135 295.367 419.59 294.799 419.933C294.231 420.266 293.614 420.433 292.947 420.433Z" fill="#E3E3E3"/>
<path d="M281.05 420.433C280.005 420.433 279.108 420.068 278.36 419.338C277.621 418.599 277.256 417.702 277.265 416.648C277.256 415.62 277.621 414.741 278.36 414.011C279.108 413.281 280.005 412.916 281.05 412.916C282.042 412.916 282.916 413.281 283.673 414.011C284.439 414.741 284.827 415.62 284.836 416.648C284.827 417.351 284.642 417.99 284.281 418.567C283.93 419.135 283.47 419.59 282.902 419.933C282.335 420.266 281.717 420.433 281.05 420.433Z" fill="#E3E3E3"/>
<path d="M250.187 420L244.996 399.235H252.458L254.837 411.889H255L257.649 399.235H264.895L267.653 411.781H267.815L270.087 399.235H277.549L272.358 420H264.301L261.38 408.861H261.164L258.244 420H250.187Z" fill="#E3E3E3"/>
<path d="M216.877 420L211.685 399.235H219.148L221.527 411.889H221.689L224.339 399.235H231.585L234.343 411.781H234.505L236.776 399.235H244.239L239.047 420H230.99L228.07 408.861H227.854L224.934 420H216.877Z" fill="#E3E3E3"/>
<path d="M183.566 420L178.375 399.235H185.837L188.217 411.889H188.379L191.029 399.235H198.275L201.033 411.781H201.195L203.466 399.235H210.928L205.737 420H197.68L194.76 408.861H194.543L191.623 420H183.566Z" fill="#E3E3E3"/>
<path fill-rule="evenodd" clip-rule="evenodd" d="M231.403 420.347C223.325 433.98 205.726 438.483 192.093 430.405C178.461 422.327 173.958 404.727 182.036 391.095C190.113 377.462 207.713 372.959 221.346 381.037C234.978 389.115 239.481 406.715 231.403 420.347ZM238.568 424.593C228.146 442.183 205.437 447.993 187.847 437.57C170.258 427.147 164.448 404.439 174.87 386.849C185.293 369.259 208.002 363.449 225.591 373.872C243.181 384.295 248.991 407.003 238.568 424.593Z" fill="#2A2B32"/>
<path d="M501.429 130H491.736C489.634 130 487.692 131.12 486.637 132.947L481.791 141.346C480.736 143.167 480.736 145.413 481.791 147.233L486.637 155.633C487.692 157.453 489.634 158.579 491.736 158.579H501.429C503.53 158.579 505.473 157.46 506.528 155.633L511.374 147.233C512.429 145.413 512.429 143.167 511.374 141.346L506.528 132.947C505.473 131.127 503.53 130 501.429 130Z" fill="#FF7059"/>
<path d="M465.842 77H452.158C449.191 77 446.447 78.6061 444.959 81.2275L438.117 93.2777C436.628 95.8887 436.628 99.1113 438.117 101.722L444.959 113.772C446.447 116.384 449.191 118 452.158 118H465.842C468.809 118 471.553 116.394 473.041 113.772L479.883 101.722C481.372 99.1113 481.372 95.8887 479.883 93.2777L473.041 81.2275C471.553 78.6165 468.809 77 465.842 77Z" fill="#FF7059"/>
<path d="M223.842 490H210.158C207.191 490 204.447 491.606 202.959 494.228L196.117 506.278C194.628 508.889 194.628 512.111 196.117 514.722L202.959 526.772C204.447 529.384 207.191 531 210.158 531H223.842C226.809 531 229.553 529.394 231.041 526.772L237.883 514.722C239.372 512.111 239.372 508.889 237.883 506.278L231.041 494.228C229.553 491.616 226.809 490 223.842 490Z" fill="#FF7059"/>
</svg>
